<?xml version="1.0" encoding="utf-8"?>
<!-- Generator: Adobe Illustrator 19.2.1, SVG Export Plug-In . SVG Version: 6.00 Build 0)  -->
<svg version="1.1" id="Layer_1" xmlns="http://www.w3.org/2000/svg" xmlns:xlink="http://www.w3.org/1999/xlink" x="0px" y="0px"
	 viewBox="0 0 323.6 178" style="enable-background:new 0 0 323.6 178;" xml:space="preserve">
<style type="text/css">
	.st0{opacity:0.4;fill:none;stroke:#4C5FAB;stroke-width:2.5;stroke-miterlimit:10;enable-background:new    ;}
	.st1{opacity:0.7;fill:none;stroke:#4C5FAB;stroke-width:2.5;stroke-miterlimit:10;enable-background:new    ;}
	.st2{fill:none;stroke:#4C5FAB;stroke-width:2.5;stroke-miterlimit:10;}
	.st3{fill:#BAC3E4;stroke:#35437C;stroke-width:2;stroke-miterlimit:10;}
	.st4{fill:#BAC3E4;}
	.st5{fill:#4C5FAB;}
</style>
<path class="st0" d="M150.2,133.8c-15.7,0-27.6-12-27.6-27.9c0-16.1,11.7-28.1,27.6-28.1s27.4,12,27.4,28.1
	C177.5,121.8,165.9,133.8,150.2,133.8z"/>
<path class="st1" d="M150.2,128.4c-12.7,0-22.3-9.7-22.3-22.6c0-13,9.5-22.7,22.3-22.7s22.2,9.7,22.2,22.7
	C172.3,118.7,162.9,128.4,150.2,128.4z"/>
<path class="st2" d="M150.2,122.8c-9.6,0-16.8-7.3-16.8-17.1s7.2-17.1,16.8-17.1s16.7,7.3,16.7,17.1
	C166.8,115.5,159.8,122.8,150.2,122.8z"/>
<g>
	<path class="st3" d="M119.3,80.5v35.1h18.5v2.4h-21.4V80.5H119.3"/>
</g>
<path class="st4" d="M150.2,118.5c-7.2,0-12.6-5.5-12.6-12.8c0-7.4,5.4-12.9,12.6-12.9s12.5,5.5,12.5,12.9
	C162.7,113,157.4,118.5,150.2,118.5z M150.2,95.4c-5.6,0-9.8,4.3-9.8,10.3c0,5.9,4.2,10.2,9.8,10.2s9.7-4.3,9.7-10.2
	S155.7,95.4,150.2,95.4z"/>
<g>
	<path class="st5" d="M85.9,75.6V0h2.9v75.4L85.9,75.6z"/>
</g>
<g>
	<path class="st5" d="M116.4,80.5L116.6,0h2.6l0.1,80.5H116.4z"/>
</g>
<path class="st5" d="M135.7,80.2v-7.1h-2.6v8.7C134.3,81,134.8,80.7,135.7,80.2z"/>
<path class="st5" d="M150.4,76.5c0.6,0,1.2,0,1.8,0v-3.4h-2.6v3.4C149.9,76.5,150.1,76.5,150.4,76.5z"/>
<path class="st4" d="M88.8,73.7c0,3.8-0.5,6.7-2.3,8.4c-2.3,2.3-3.8,2.7-7.4,2.4l-0.3-2.8c4.3,1,7-1.6,7-7.3V36.2h2.9v37.5H88.8z"/>
<path class="st4" d="M114.3,71.7l-0.4,0.3c-2.5,1.9-3.5,2.3-4.6,2.3c-1.2,0-1.5-0.6-1.8-3.1c-2.7,2.1-5.1,3.1-7.8,3.1
	C96,74.3,93,71.5,93,68c0-6.4,7.2-8.7,14.4-9v-3.1c0-3.3-1.8-5.1-5.5-5.1c-2.6,0-4.6,0.9-7.5,3.1v-2.7c3-1.9,5.3-2.6,8-2.6
	c3.1,0,7.7,1.3,7.7,6.4v15.4c0,1,0.2,1.3,0.6,1.3c0.6,0,2.2-1.2,3.5-2.2L114.3,71.7L114.3,71.7z M107.5,61.2
	c-6.4-0.3-11.8,2.5-11.8,6.8c0,2.3,2.1,4.1,4.9,4.1c2.4,0,4.3-0.9,6.9-3.2V61.2z"/>
<path class="st4" d="M119,53.4L119,53.4c2.3-3.5,4.6-4.8,8-4.8c3.8,0,6.4,1.9,8,5.9c2.5-4.1,5-5.9,8.6-5.9c5.2,0,8.6,4,8.6,10v15.2
	h-2.6v-14c0-4.9-2.1-8.6-6.4-8.6c-3,0-5,1.6-7.5,5.8v16.8h-2.6V59.7c0-6.1-3-8.5-6.5-8.5c-3,0-5.1,1.5-7.4,5.3v17.3h-2.8l0.2-24.7
	h2.6v4.3L119,53.4z"/>
<path class="st4" d="M158.5,60.5c-0.8,6.3,4.2,11.2,9.8,11.2c3.3,0,6-1.1,9.2-3.7v3c-2.9,2.3-5.9,3.3-9.5,3.3
	c-7.1,0-12.3-5.5-12.3-13.1c0-7.3,4.8-12.5,11.3-12.5c5.3,0,10.9,3.7,10.9,11.9L158.5,60.5L158.5,60.5z M174.8,58.3
	c-0.9-4.8-3.6-7.2-7.8-7.2c-4.1,0-7.3,2.7-8.2,7.2H174.8z"/>
<path class="st4" d="M195.5,67.5c0,3.8-3.5,6.8-8.1,6.8c-2.5,0-4.9-0.7-7.4-2.3v-2.6c3.2,1.7,5.4,2.3,7.8,2.3c3,0,5.2-1.8,5.2-4.3
	c0-5.9-12.8-4.1-12.8-12c0-3.8,3.5-6.8,8-6.8c2.1,0,4.1,0.7,6.6,2.1v2.8c-2.7-1.8-4.6-2.5-6.8-2.5c-3,0-5.3,1.8-5.3,4.2
	C182.7,61.1,195.5,58.9,195.5,67.5"/>
<path class="st5" d="M187.4,74.4c-0.1,0-0.3,0-0.4,0v103.7l2.6-0.2V74.1C188.9,74.3,188.2,74.4,187.4,74.4z"/>
<g>
	<path class="st5" d="M212.1,178.2V80.5h2.6v97.7H212.1z"/>
</g>
<g>
	<path class="st5" d="M204.4,178.3v-62.8h2.6v63h-2.6V178.3z"/>
</g>
<g>
	<path class="st5" d="M229.5,178v-62.5h2.6V178H229.5z"/>
</g>
<g>
	<path class="st5" d="M301.3,178.2V0h2.6v177.9L301.3,178.2z"/>
</g>
<g>
	<path class="st3" d="M177.3,93c2.1,0,3.8,0.3,6.5,1.2V97c-2.9-1.2-4.3-1.5-6.4-1.5c-5.5,0-9.3,4.2-9.3,10.3
		c0,6.2,3.7,10.2,9.5,10.2c2.3,0,3.9-0.3,6.7-1.4v2.8c-2.8,0.9-4.6,1.3-6.9,1.3c-7.3,0-12.1-5-12.1-12.5
		C165.3,98.4,170.2,93,177.3,93"/>
</g>
<path class="st4" d="M189.6,97.6L189.6,97.6c2.4-3.5,4.7-4.8,8.2-4.8c5.3,0,9.2,3.5,9.2,10.1V118h-2.6v-14c0-5.3-2-8.5-6.7-8.5
	c-3.6,0-5.8,1.8-8.1,5.3v17.3H187V80.5h2.6V97.6z"/>
<path class="st4" d="M214.7,97.6h0.1c2.3-3.5,4.6-4.8,8.1-4.8c5.3,0,9.2,3.5,9.2,10.1V118h-2.6v-14c0-5.3-2-8.5-6.7-8.5
	c-3.6,0-5.8,1.8-8.1,5.3v17.3h-2.6V80.5h2.6V97.6z"/>
<path class="st4" d="M238.5,104.8c-0.8,6.3,4.2,11.2,9.8,11.2c3.3,0,6-1.1,9.2-3.7v3c-2.9,2.3-5.9,3.3-9.5,3.3
	c-7.1,0-12.3-5.5-12.3-13.1c0-7.3,4.8-12.5,11.3-12.5c5.3,0,10.9,3.7,10.9,11.9L238.5,104.8L238.5,104.8z M254.9,102.6
	c-0.9-4.8-3.6-7.2-7.8-7.2c-4.1,0-7.3,2.7-8.2,7.2H254.9z"/>
<path class="st4" d="M281.2,116l-0.4,0.3c-2.5,1.9-3.5,2.3-4.6,2.3c-1.2,0-1.5-0.6-1.8-3.1c-2.7,2.1-5.1,3.1-7.8,3.1
	c-3.7,0-6.7-2.8-6.7-6.3c0-6.4,7.2-8.7,14.4-9v-3.1c0-3.3-1.8-5.1-5.5-5.1c-2.6,0-4.6,0.9-7.5,3.1v-2.7c3-1.9,5.3-2.6,8-2.6
	c3.1,0,7.7,1.3,7.7,6.4v15.4c0,1,0.2,1.3,0.6,1.3c0.6,0,2.2-1.2,3.5-2.2L281.2,116L281.2,116z M274.4,105.5
	c-6.4-0.3-11.8,2.5-11.8,6.8c0,2.3,2.1,4.1,4.9,4.1c2.4,0,4.3-0.9,6.9-3.2L274.4,105.5L274.4,105.5z"/>
<path class="st4" d="M304,118h-2.6v-1.9c-2.6,1.8-4.5,2.4-7.3,2.4c-7,0-12.5-5.6-12.5-12.9c0-7.4,5.3-12.8,12.5-12.8
	c2.5,0,4.3,0.5,7.3,2V80.5h2.6V118z M301.3,97.8c-2.7-1.7-4.6-2.3-7.2-2.3c-5.7,0-9.8,4.2-9.8,10.1c0,6,4.4,10.4,10.3,10.4
	c2.5,0,4.1-0.5,6.7-2.3V97.8z"/>
<g>
	<path class="st5" d="M212.1,80.5V0h2.9l-0.3,80.5H212.1z"/>
</g>
<path class="st4" d="M221.7,36.2c9.2,0,12.4,4.7,12.4,9.7c0,4.3-2.4,7.4-7.1,9.1c1.8,0.9,3.2,3.1,5,5.7l8.5,13h-3.4l-6.6-10.2
	c-4.5-7.1-5.9-7.7-10.4-7.7H215l-0.3,18h-2.6V36.2H221.7z M215,53.3h6.2c6.6,0,9.8-2.9,9.8-7.4c0-4.2-3-7.3-9.9-7.3H215V53.3z"/>
<path class="st4" d="M247.2,73.7h-3.6v-5.3h3.6V73.7z"/>
<g>
	<path class="st4" d="M119.3,80.5v35.1h18.5v2.4h-21.4V80.5H119.3"/>
</g>
<g>
	<path class="st4" d="M177.3,93c2.1,0,3.8,0.3,6.5,1.2V97c-2.9-1.2-4.3-1.5-6.4-1.5c-5.5,0-9.3,4.2-9.3,10.3
		c0,6.2,3.7,10.2,9.5,10.2c2.3,0,3.9-0.3,6.7-1.4v2.8c-2.8,0.9-4.6,1.3-6.9,1.3c-7.3,0-12.1-5-12.1-12.5
		C165.3,98.4,170.2,93,177.3,93"/>
</g>
<g>
	<path class="st5" d="M0,115.5h116.4v2.5H0.2L0,115.5z"/>
</g>
</svg>
